<svg id="svg" xmlns="http://www.w3.org/2000/svg" xmlns:xlink="http://www.w3.org/1999/xlink" width="400" height="400" viewBox="0, 0, 400,400"><g id="svgg"><path id="path0" d="M109.375 26.611 C 87.049 32.424,69.756 49.824,64.070 72.195 C 62.525 78.275,62.500 80.702,62.500 222.600 L 62.500 366.825 64.405 369.629 C 67.625 374.367,75.943 376.641,80.715 374.087 C 81.654 373.585,108.698 354.776,140.813 332.290 C 172.928 309.804,199.562 291.406,200.000 291.406 C 200.438 291.406,227.072 309.804,259.187 332.290 C 291.302 354.776,318.346 373.585,319.285 374.087 C 324.344 376.794,332.881 374.363,335.942 369.343 C 338.397 365.316,338.385 81.859,335.930 72.195 C 330.205 49.671,312.829 32.295,290.305 26.570 C 280.823 24.161,118.647 24.198,109.375 26.611 " stroke="none" fill="#000000" fill-rule="evenodd"></path></g></svg>