<?xml version="1.0" encoding="UTF-8"?>
<!DOCTYPE svg PUBLIC "-//W3C//DTD SVG 1.1//EN" "http://www.w3.org/Graphics/SVG/1.1/DTD/svg11.dtd">
<svg xmlns="http://www.w3.org/2000/svg" version="1.1" width="512px" height="512px" style="shape-rendering:geometricPrecision; text-rendering:geometricPrecision; image-rendering:optimizeQuality; fill-rule:evenodd; clip-rule:evenodd" xmlns:xlink="http://www.w3.org/1999/xlink">
<g><path style="opacity:0.887" fill="#000000" d="M 232.5,-0.5 C 247.833,-0.5 263.167,-0.5 278.5,-0.5C 291.932,3.4972 301.099,12.1639 306,25.5C 343,114.5 380,203.5 417,292.5C 448.605,308.385 480.105,324.385 511.5,340.5C 511.5,355.167 511.5,369.833 511.5,384.5C 427.466,426.85 343.466,469.184 259.5,511.5C 256.833,511.5 254.167,511.5 251.5,511.5C 167.534,469.184 83.5343,426.85 -0.5,384.5C -0.5,369.833 -0.5,355.167 -0.5,340.5C 30.8954,324.385 62.3954,308.385 94,292.5C 132.391,200.052 171.057,107.718 210,15.5C 215.891,7.81324 223.391,2.4799 232.5,-0.5 Z M 241.5,9.5 C 253.21,9.16815 264.876,9.66815 276.5,11C 285.573,13.7392 291.74,19.5725 295,28.5C 300.695,41.9197 306.195,55.4197 311.5,69C 303.115,73.6877 294.115,77.021 284.5,79C 255.642,84.8192 227.642,81.9858 200.5,70.5C 199.628,68.5342 199.795,66.5342 201,64.5C 207,50.5 213,36.5 219,22.5C 224.719,14.9196 232.219,10.5862 241.5,9.5 Z M 194.5,80.5 C 234.853,96.4815 275.187,96.4815 315.5,80.5C 322.254,93.7344 328.254,107.401 333.5,121.5C 297.164,145.669 257.83,151.836 215.5,140C 201.814,135.656 189.148,129.489 177.5,121.5C 182.977,107.729 188.644,94.0624 194.5,80.5 Z M 172.5,133.5 C 227.669,165.445 282.836,165.445 338,133.5C 346.785,153.349 355.285,173.349 363.5,193.5C 363.167,194.167 362.833,194.833 362.5,195.5C 344.833,204.333 327.167,213.167 309.5,222C 273.505,236 237.505,236 201.5,222C 183.833,213.167 166.167,204.333 148.5,195.5C 148.167,194.833 147.833,194.167 147.5,193.5C 155.839,173.477 164.173,153.477 172.5,133.5 Z M 142.5,205.5 C 162.145,214.989 181.811,224.489 201.5,234C 242.189,248.105 282.189,246.438 321.5,229C 337.078,221.294 352.578,213.461 368,205.5C 374.37,218.91 380.203,232.576 385.5,246.5C 385.167,247.167 384.833,247.833 384.5,248.5C 362.656,259.922 340.656,271.089 318.5,282C 280.055,300.485 241.055,301.819 201.5,286C 176.5,273.5 151.5,261 126.5,248.5C 125.386,247.277 125.219,245.944 126,244.5C 131.515,231.474 137.015,218.474 142.5,205.5 Z M 119.5,258.5 C 147.356,272.261 175.356,285.761 203.5,299C 238.167,311.667 272.833,311.667 307.5,299C 335.323,286.172 362.823,272.672 390,258.5C 397.591,275.353 404.925,292.353 412,309.5C 417.029,328.746 411.529,344.246 395.5,356C 366.833,370.333 338.167,384.667 309.5,399C 273.502,414.333 237.502,414.333 201.5,399C 172.833,384.667 144.167,370.333 115.5,356C 100.371,345.242 94.538,330.742 98,312.5C 105.463,294.581 112.63,276.581 119.5,258.5 Z M 423.5,308.5 C 446.651,320.576 469.984,332.409 493.5,344C 414.285,383.774 334.952,423.274 255.5,462.5C 176.048,423.274 96.7148,383.774 17.5,344C 40.5,332.5 63.5,321 86.5,309.5C 82.6105,333.895 90.9438,353.062 111.5,367C 143.68,383.757 176.346,399.424 209.5,414C 244.27,424.416 278.603,423.083 312.5,410C 343.936,395.116 374.936,379.449 405.5,363C 422.398,348.472 428.398,330.306 423.5,308.5 Z M 9.5,353.5 C 89.6017,393.051 169.602,432.884 249.5,473C 250.648,481.088 250.815,489.254 250,497.5C 170.244,457.372 90.4109,417.372 10.5,377.5C 9.5023,369.528 9.16897,361.528 9.5,353.5 Z M 499.5,353.5 C 500.824,357.107 501.491,361.107 501.5,365.5C 501.167,369.5 500.833,373.5 500.5,377.5C 420.589,417.372 340.756,457.372 261,497.5C 260.185,489.254 260.352,481.088 261.5,473C 341.049,433.392 420.383,393.559 499.5,353.5 Z"/></g>
</svg>
