<svg id="bold" enable-background="new 0 0 24 24" height="512" viewBox="0 0 24 24" width="512" xmlns="http://www.w3.org/2000/svg"><path d="m3.75 5.5c-.552 0-1-.448-1-1v-3.5c0-.552.448-1 1-1s1 .448 1 1v3.5c0 .552-.448 1-1 1z"/><path d="m8.5 5.5c-.552 0-1-.448-1-1v-3.5c0-.552.448-1 1-1s1 .448 1 1v3.5c0 .552-.448 1-1 1z"/><path d="m13.25 5.5c-.552 0-1-.448-1-1v-3.5c0-.552.448-1 1-1s1 .448 1 1v3.5c0 .552-.448 1-1 1z"/><path d="m14.25 2.25h-11.5c-1.52 0-2.75 1.23-2.75 2.75v13.25c0 1.52 1.23 2.75 2.75 2.75h6.59c-.54-1.14-.84-2.41-.84-3.75 0-1.54.4-2.99 1.11-4.25h-5.61c-.55 0-1-.45-1-1s.45-1 1-1h7c.04 0 .09 0 .13.01 1.52-1.5 3.59-2.44 5.87-2.5v-3.51c0-1.52-1.23-2.75-2.75-2.75zm-6.25 6.75h-4c-.55 0-1-.45-1-1s.45-1 1-1h4c.55 0 1 .45 1 1s-.45 1-1 1z"/><path d="m17.25 10.5c-3.722 0-6.75 3.028-6.75 6.75s3.028 6.75 6.75 6.75 6.75-3.028 6.75-6.75-3.028-6.75-6.75-6.75zm2.75 7.75h-1.75v1.75c0 .552-.448 1-1 1s-1-.448-1-1v-1.75h-1.75c-.552 0-1-.448-1-1s.448-1 1-1h1.75v-1.75c0-.552.448-1 1-1s1 .448 1 1v1.75h1.75c.552 0 1 .448 1 1s-.448 1-1 1z"/></svg>