<?xml version="1.0" standalone="no"?>
<!DOCTYPE svg PUBLIC "-//W3C//DTD SVG 20010904//EN"
 "http://www.w3.org/TR/2001/REC-SVG-20010904/DTD/svg10.dtd">
<svg version="1.0" xmlns="http://www.w3.org/2000/svg"
 width="256.000000pt" height="256.000000pt" viewBox="0 0 256.000000 256.000000"
 preserveAspectRatio="xMidYMid meet">
<metadata>
Created by potrace 1.16, written by Peter Selinger 2001-2019
</metadata>
<g transform="translate(0.000000,256.000000) scale(0.100000,-0.100000)"
fill="#000000" stroke="none">
<path d="M968 2531 c-32 -28 -33 -33 -37 -115 -2 -57 -7 -86 -15 -86 -6 0 -60
-24 -119 -53 l-107 -53 -37 38 c-19 20 -49 42 -64 49 -58 23 -86 7 -216 -124
-155 -155 -163 -184 -81 -273 l41 -44 -52 -110 c-71 -148 -101 -271 -108 -435
-5 -124 -2 -151 65 -597 79 -520 83 -535 169 -621 26 -26 72 -60 103 -75 l55
-27 715 0 c715 0 715 0 763 22 26 12 72 45 102 74 94 89 97 99 175 622 75 497
82 587 55 739 -20 119 -50 209 -102 315 l-46 93 41 44 c82 89 74 118 -81 273
-155 157 -182 165 -274 80 l-43 -40 -109 52 c-59 28 -113 51 -119 51 -6 0 -11
35 -13 86 -4 82 -5 87 -37 115 l-32 29 -280 0 -280 0 -32 -29z m581 -45 c17
-15 21 -31 21 -76 l0 -57 -62 15 c-42 10 -119 14 -228 14 -109 0 -186 -4 -227
-14 l-63 -15 0 57 c0 57 11 78 50 93 8 3 121 5 251 4 217 -2 239 -4 258 -21z
m-104 -171 c362 -59 673 -309 810 -651 54 -134 68 -208 69 -369 1 -137 -5
-185 -62 -560 -35 -226 -68 -428 -73 -449 -23 -87 -113 -182 -202 -213 -48
-17 -102 -18 -707 -18 -765 0 -722 -5 -826 100 -48 47 -65 73 -78 115 -27 88
-146 917 -146 1013 0 227 86 468 234 653 235 294 612 439 981 379z m-845 -91
l40 -36 -41 -30 c-52 -38 -159 -145 -197 -197 l-30 -41 -36 40 c-20 22 -36 43
-36 46 0 39 212 252 252 254 5 0 26 -16 48 -36z m1468 -1 c68 -64 192 -201
192 -213 0 -5 -16 -27 -35 -48 l-35 -37 -37 45 c-47 58 -125 136 -183 183
l-45 37 37 35 c21 19 44 35 52 35 7 0 31 -17 54 -37z"/>
<path d="M1135 2263 c-212 -33 -405 -132 -556 -282 -126 -127 -214 -278 -260
-451 -20 -72 -23 -109 -23 -250 0 -141 3 -178 23 -250 46 -173 134 -324 260
-451 127 -126 278 -214 451 -260 72 -20 109 -23 250 -23 141 0 178 3 250 23
173 46 324 134 451 260 126 127 214 278 260 451 20 72 23 109 23 250 0 141 -3
178 -23 250 -46 173 -134 324 -260 451 -89 88 -172 147 -285 199 -129 61 -228
82 -391 86 -77 1 -153 0 -170 -3z m385 -83 c324 -92 567 -336 662 -666 19 -67
23 -103 23 -234 0 -131 -4 -167 -23 -234 -79 -273 -251 -482 -497 -601 -150
-73 -224 -90 -405 -90 -181 0 -255 17 -405 90 -246 119 -418 328 -497 601 -19
67 -23 103 -23 234 0 173 16 248 79 386 130 280 388 479 693 534 84 16 309 4
393 -20z"/>
<path d="M465 1617 c-3 -6 -4 -163 -3 -347 l3 -335 815 0 815 0 0 345 0 345
-813 3 c-647 2 -814 0 -817 -11z m1575 -337 l0 -290 -760 0 -760 0 0 290 0
290 760 0 760 0 0 -290z"/>
<path d="M590 1515 c0 -8 -7 -15 -15 -15 -13 0 -15 -31 -15 -220 0 -189 2
-220 15 -220 8 0 15 -7 15 -15 0 -13 21 -15 130 -15 109 0 130 2 130 15 0 8 7
15 15 15 13 0 15 31 15 220 0 189 -2 220 -15 220 -8 0 -15 7 -15 15 0 13 -21
15 -130 15 -109 0 -130 -2 -130 -15z m230 -235 l0 -190 -100 0 -100 0 0 190 0
190 100 0 100 0 0 -190z"/>
<path d="M940 1515 c0 -8 -4 -15 -10 -15 -6 0 -10 -80 -10 -220 0 -140 4 -220
10 -220 6 0 10 -7 10 -15 0 -13 22 -15 135 -15 113 0 135 2 135 15 0 8 5 15
10 15 6 0 10 80 10 220 0 140 -4 220 -10 220 -5 0 -10 7 -10 15 0 13 -22 15
-135 15 -113 0 -135 -2 -135 -15z m240 -235 l0 -190 -105 0 -105 0 0 190 0
190 105 0 105 0 0 -190z"/>
<path d="M1350 1500 l0 -30 120 0 120 0 0 -80 0 -80 -120 0 -120 0 0 -30 0
-30 120 0 120 0 0 -80 0 -80 -120 0 -120 0 0 -30 0 -30 135 0 c113 0 135 2
135 15 0 8 5 15 10 15 6 0 10 80 10 220 0 140 -4 220 -10 220 -5 0 -10 7 -10
15 0 13 -22 15 -135 15 l-135 0 0 -30z"/>
<path d="M1710 1515 c0 -8 -7 -15 -15 -15 -13 0 -15 -31 -15 -220 0 -189 2
-220 15 -220 8 0 15 -7 15 -15 0 -13 21 -15 130 -15 109 0 130 2 130 15 0 8 7
15 15 15 13 0 15 31 15 220 0 189 -2 220 -15 220 -8 0 -15 7 -15 15 0 13 -21
15 -130 15 -109 0 -130 -2 -130 -15z m230 -235 l0 -190 -100 0 -100 0 0 190 0
190 100 0 100 0 0 -190z"/>
</g>
</svg>
