<svg id="svg" xmlns="http://www.w3.org/2000/svg" xmlns:xlink="http://www.w3.org/1999/xlink" width="400" height="400" viewBox="0, 0, 400,400"><g id="svgg"><path id="path0" d="M175.000 1.185 C 11.863 21.386,-58.381 221.347,56.207 339.352 C 162.324 448.634,347.623 403.882,391.747 258.315 C 433.720 119.840,318.701 -16.609,175.000 1.185 M224.450 23.873 C 343.957 41.667,412.438 169.164,360.268 276.737 C 295.209 410.886,104.791 410.886,39.732 276.737 C -21.493 150.495,86.058 3.267,224.450 23.873 M189.453 41.892 C 60.053 52.311,-4.182 202.690,78.535 301.563 C 86.032 310.525,105.855 328.906,108.022 328.906 C 108.257 328.906,108.608 318.975,108.802 306.836 C 109.197 282.124,109.433 280.695,114.949 269.541 C 119.762 259.808,128.302 251.448,138.334 246.646 C 150.398 240.872,148.829 241.016,200.000 241.016 C 251.171 241.016,249.602 240.872,261.666 246.646 C 271.698 251.448,280.238 259.808,285.051 269.541 C 290.567 280.695,290.803 282.124,291.198 306.836 C 291.392 318.975,291.713 328.906,291.911 328.906 C 292.810 328.906,304.140 319.415,310.040 313.720 C 388.502 237.974,368.211 107.371,270.345 58.219 C 246.634 46.311,214.677 39.861,189.453 41.892 M213.388 100.414 C 255.019 111.168,268.000 163.775,236.210 192.904 C 201.855 224.385,145.976 199.565,146.031 152.850 C 146.073 117.653,179.472 91.653,213.388 100.414 " stroke="none" fill="#000000" fill-rule="evenodd"></path></g></svg>