<svg id="svg" xmlns="http://www.w3.org/2000/svg" xmlns:xlink="http://www.w3.org/1999/xlink" width="400" height="400" viewBox="0, 0, 400,400"><g id="svgg"><path id="path0" d="M176.258 26.213 C 34.414 45.528,-25.453 219.108,74.187 322.162 C 181.461 433.113,371.090 359.192,374.792 204.981 C 377.411 95.835,283.825 11.566,176.258 26.213 M206.288 115.042 C 212.173 119.008,212.082 118.405,212.344 154.843 L 212.579 187.421 245.157 187.656 C 276.387 187.881,277.847 187.957,280.466 189.495 C 288.857 194.425,288.857 205.575,280.466 210.505 C 277.847 212.043,276.387 212.119,245.157 212.344 L 212.579 212.579 212.344 245.157 C 212.082 281.595,212.173 280.992,206.288 284.958 C 200.808 288.651,193.091 286.586,189.495 280.466 C 187.957 277.847,187.881 276.387,187.656 245.157 L 187.421 212.579 154.843 212.344 C 123.613 212.119,122.153 212.043,119.534 210.505 C 111.143 205.575,111.143 194.425,119.534 189.495 C 122.153 187.957,123.613 187.881,154.843 187.656 L 187.421 187.421 187.656 154.843 C 187.881 123.613,187.957 122.153,189.495 119.534 C 193.091 113.414,200.808 111.349,206.288 115.042 " stroke="none" fill="#000000" fill-rule="evenodd"></path></g></svg>