<?xml version="1.0" standalone="no"?>
<!DOCTYPE svg PUBLIC "-//W3C//DTD SVG 20010904//EN"
 "http://www.w3.org/TR/2001/REC-SVG-20010904/DTD/svg10.dtd">
<svg version="1.0" xmlns="http://www.w3.org/2000/svg"
 width="256.000000pt" height="256.000000pt" viewBox="0 0 256.000000 256.000000"
 preserveAspectRatio="xMidYMid meet">

<g transform="translate(0.000000,256.000000) scale(0.100000,-0.100000)"
fill="#000000" stroke="none">
<path d="M7 2173 c-4 -3 -7 -406 -7 -894 0 -868 0 -889 19 -899 12 -6 133 -10
321 -10 l302 0 69 67 69 66 69 -66 69 -67 804 0 c628 0 808 3 821 13 16 11 17
74 15 902 l-3 890 -825 3 -824 2 -63 -62 -63 -62 -63 62 -63 62 -320 0 c-176
0 -324 -3 -327 -7z m685 -100 c37 -37 58 -66 58 -80 0 -19 5 -23 30 -23 25 0
30 4 30 23 0 14 21 43 58 80 l58 57 792 0 792 0 0 -645 0 -645 -792 0 -792 0
-58 57 c-37 37 -58 66 -58 80 0 19 -5 23 -30 23 -25 0 -30 -4 -30 -23 0 -14
-21 -43 -58 -80 l-58 -57 -292 0 -292 0 0 645 0 645 292 0 292 0 58 -57z m168
-1238 l54 -55 798 0 798 0 0 -180 0 -180 -787 0 -787 0 -63 62 c-41 40 -63 71
-63 85 0 19 -5 23 -30 23 -24 0 -30 -4 -30 -22 0 -14 -23 -46 -62 -85 l-62
-63 -288 0 -288 0 0 180 0 180 298 0 298 0 54 55 c38 38 62 55 80 55 18 0 42
-17 80 -55z"/>
<path d="M150 1845 l0 -25 185 0 185 0 0 25 0 25 -185 0 -185 0 0 -25z"/>
<path d="M984 1856 c-3 -9 -4 -63 -2 -120 3 -103 4 -107 34 -137 43 -42 97
-49 144 -17 47 32 61 79 58 192 l-3 91 -113 3 c-92 2 -113 0 -118 -12z m186
-116 c0 -73 -3 -83 -25 -105 -13 -14 -33 -25 -45 -25 -11 0 -32 11 -45 25 -22
22 -25 32 -25 105 l0 80 70 0 70 0 0 -80z"/>
<path d="M1074 1777 c-3 -8 -4 -34 -2 -58 3 -39 6 -44 28 -44 24 0 25 3 25 55
0 49 -2 55 -23 58 -12 2 -24 -3 -28 -11z"/>
<path d="M752 1808 c3 -49 5 -53 28 -53 23 0 25 4 28 53 l3 52 -31 0 -31 0 3
-52z"/>
<path d="M1940 1837 c-114 -33 -201 -105 -248 -205 -36 -76 -38 -201 -5 -275
51 -112 132 -185 234 -212 160 -43 318 18 400 154 114 189 51 410 -144 506
-84 41 -167 52 -237 32z m147 -63 c4 -12 -5 -26 -28 -45 -19 -16 -36 -28 -39
-28 -3 0 -20 12 -39 28 -51 42 -38 61 39 61 47 0 62 -4 67 -16z m-187 -8 c0
-6 -96 -76 -104 -76 -15 0 9 24 52 51 47 30 52 32 52 25z m318 -43 c18 -14 31
-27 28 -30 -5 -5 -106 65 -106 73 0 7 41 -16 78 -43z m-261 -39 c47 -36 45
-70 -6 -107 -52 -36 -82 -26 -100 33 -7 23 -10 44 -7 47 8 9 71 52 75 53 2 0
19 -11 38 -26z m205 0 c44 -31 42 -25 26 -76 -17 -57 -48 -67 -99 -31 -50 36
-53 71 -6 107 17 14 34 26 36 26 3 0 22 -12 43 -26z m-359 -88 l15 -44 -35
-25 c-60 -43 -80 -11 -47 73 22 55 48 54 67 -4z m501 4 c33 -84 13 -116 -47
-73 l-35 25 15 44 c19 58 45 59 67 4z m-246 -67 c31 -27 32 -29 20 -65 -11
-37 -13 -38 -58 -38 -45 0 -47 1 -58 38 -12 36 -11 38 20 65 18 15 35 27 38
27 3 0 20 -12 38 -27z m-172 -31 c6 -4 18 -28 26 -53 21 -62 8 -79 -60 -79
-47 0 -51 2 -61 31 -17 49 -13 62 22 87 33 23 54 27 73 14z m341 -14 c36 -24
38 -38 14 -100 -9 -24 -16 -28 -50 -28 -28 0 -46 6 -59 21 -18 19 -19 24 -6
67 21 68 45 78 101 40z m-483 -92 c20 -60 20 -80 1 -45 -16 30 -38 116 -26
103 5 -5 16 -31 25 -58z m561 -23 c-24 -63 -30 -46 -8 23 10 33 19 50 21 40 2
-10 -4 -38 -13 -63z m-218 -22 c9 -15 10 -28 1 -53 -16 -49 -27 -58 -69 -58
-41 0 -49 7 -65 60 -16 54 -1 70 66 70 44 0 58 -4 67 -19z m-176 -82 c11 -34
10 -42 -2 -50 -20 -13 -22 -12 -67 21 -25 18 -42 38 -42 50 0 17 7 20 50 20
49 0 49 0 61 -41z m329 21 c0 -12 -17 -32 -42 -50 -45 -33 -47 -34 -67 -21
-12 8 -13 16 -2 50 12 41 12 41 61 41 43 0 50 -3 50 -20z m-192 -107 c-16 -2
-40 -2 -55 0 -16 2 -3 4 27 4 30 0 43 -2 28 -4z"/>
<path d="M1310 1755 l0 -25 115 0 115 0 0 25 0 25 -115 0 -115 0 0 -25z"/>
<path d="M150 1725 l0 -25 130 0 130 0 0 25 0 25 -130 0 -130 0 0 -25z"/>
<path d="M752 1598 c3 -49 5 -53 28 -53 23 0 25 4 28 53 l3 52 -31 0 -31 0 3
-52z"/>
<path d="M150 1605 l0 -25 130 0 130 0 0 25 0 25 -130 0 -130 0 0 -25z"/>
<path d="M150 1485 l0 -25 185 0 185 0 0 25 0 25 -185 0 -185 0 0 -25z"/>
<path d="M752 1388 c3 -49 5 -53 28 -53 23 0 25 4 28 53 l3 52 -31 0 -31 0 3
-52z"/>
<path d="M1077 1414 c-4 -4 -7 -22 -7 -41 0 -26 -4 -33 -20 -33 -16 0 -20 7
-20 35 0 31 -3 35 -25 35 -24 0 -25 -3 -25 -54 0 -30 4 -57 9 -60 4 -3 3 -24
-3 -46 -9 -35 -8 -47 9 -78 12 -22 35 -44 58 -55 33 -17 42 -17 79 -5 23 7 50
25 61 40 19 25 21 42 18 118 0 14 2 51 5 83 6 56 5 57 -20 57 -23 0 -26 -4
-26 -35 0 -28 -4 -35 -19 -35 -16 0 -20 8 -23 38 -2 28 -8 38 -23 40 -12 2
-24 0 -28 -4z m69 -150 c40 -39 20 -95 -38 -109 -21 -5 -33 -1 -52 19 -32 31
-33 62 -4 93 28 30 63 29 94 -3z"/>
<path d="M150 1365 l0 -25 130 0 130 0 0 25 0 25 -130 0 -130 0 0 -25z"/>
<path d="M150 1245 l0 -25 130 0 130 0 0 25 0 25 -130 0 -130 0 0 -25z"/>
<path d="M1310 1220 l0 -30 115 0 115 0 0 30 0 30 -115 0 -115 0 0 -30z"/>
<path d="M752 1178 c3 -49 5 -53 28 -53 23 0 25 4 28 53 l3 52 -31 0 -31 0 3
-52z"/>
<path d="M150 1125 l0 -25 185 0 185 0 0 25 0 25 -185 0 -185 0 0 -25z"/>
<path d="M750 740 c0 -49 1 -50 30 -50 29 0 30 1 30 50 0 49 -1 50 -30 50 -29
0 -30 -1 -30 -50z"/>
</g>
</svg>
